<svg width="40" height="40" viewBox="0 0 40 40" fill="none" xmlns="http://www.w3.org/2000/svg">
<rect width="40" height="40" rx="6" fill="#4B465C" fill-opacity="0.08"/>
<circle cx="17" cy="15" r="4" stroke="#4B465C" stroke-width="1.5" stroke-linecap="round" stroke-linejoin="round"/>
<circle cx="17" cy="15" r="4" stroke="white" stroke-opacity="0.2" stroke-width="1.5" stroke-linecap="round" stroke-linejoin="round"/>
<path d="M11 29V27C11 24.7909 12.7909 23 15 23H19C21.2091 23 23 24.7909 23 27V29" stroke="#4B465C" stroke-width="1.5" stroke-linecap="round" stroke-linejoin="round"/>
<path d="M11 29V27C11 24.7909 12.7909 23 15 23H19C21.2091 23 23 24.7909 23 27V29" stroke="white" stroke-opacity="0.2" stroke-width="1.5" stroke-linecap="round" stroke-linejoin="round"/>
<path d="M24 11.1289C25.7699 11.5821 27.0078 13.1769 27.0078 15.0039C27.0078 16.8309 25.7699 18.4257 24 18.8789" stroke="#4B465C" stroke-width="1.5" stroke-linecap="round" stroke-linejoin="round"/>
<path d="M24 11.1289C25.7699 11.5821 27.0078 13.1769 27.0078 15.0039C27.0078 16.8309 25.7699 18.4257 24 18.8789" stroke="white" stroke-opacity="0.2" stroke-width="1.5" stroke-linecap="round" stroke-linejoin="round"/>
<path d="M29 29.0004V27.0004C28.9896 25.185 27.7578 23.6042 26 23.1504" stroke="#4B465C" stroke-width="1.5" stroke-linecap="round" stroke-linejoin="round"/>
<path d="M29 29.0004V27.0004C28.9896 25.185 27.7578 23.6042 26 23.1504" stroke="white" stroke-opacity="0.2" stroke-width="1.5" stroke-linecap="round" stroke-linejoin="round"/>
</svg>
