<svg width="24" height="24" viewBox="0 0 24 24" fill="none" xmlns="http://www.w3.org/2000/svg">
<path d="M0 11.52C0 6.08942 0 3.37414 1.68707 1.68707C3.37414 0 6.08942 0 11.52 0H12.48C17.9106 0 20.6259 0 22.3129 1.68707C24 3.37414 24 6.08942 24 11.52V12.48C24 17.9106 24 20.6259 22.3129 22.3129C20.6259 24 17.9106 24 12.48 24H11.52C6.08942 24 3.37414 24 1.68707 22.3129C0 20.6259 0 17.9106 0 12.48V11.52Z" fill="#0077FF"/>
<path d="M13.0002 17.6017C7.4316 17.6017 4.25537 13.7841 4.12305 7.43164H6.91243C7.00405 12.0942 9.06042 14.0692 10.6893 14.4764V7.43164H13.3159V11.4528C14.9243 11.2798 16.6141 9.44733 17.1842 7.43164H19.8107C19.373 9.91564 17.5405 11.7481 16.2375 12.5014C17.5405 13.1122 19.6276 14.7105 20.4217 17.6017H17.5304C16.9094 15.6675 15.3621 14.171 13.3159 13.9674V17.6017H13.0002Z" fill="white"/>
</svg>
